<?xml version="1.0" encoding="UTF-8"?>
<svg version="1.1" xmlns="http://www.w3.org/2000/svg" width="500" height="500">
<path d="M0 0 C1.08771802 -0.00384115 2.17543604 -0.00768229 3.29611522 -0.01163983 C5.1032246 -0.01034011 5.1032246 -0.01034011 6.94684124 -0.00901413 C8.2190906 -0.01198525 9.49133995 -0.01495637 10.80214232 -0.01801753 C14.34526561 -0.02610592 17.88836865 -0.02787812 21.43150008 -0.028615 C25.24823435 -0.03046237 29.06495803 -0.0380081 32.88168621 -0.04475021 C41.23287538 -0.05834718 49.58405975 -0.06436039 57.93525815 -0.06876087 C63.14720623 -0.07152103 68.35915246 -0.07575797 73.57109928 -0.08026505 C87.9939646 -0.09245957 102.41682843 -0.10275847 116.83969879 -0.10614014 C117.76326545 -0.1063597 118.68683211 -0.10657927 119.63838563 -0.10680549 C120.56419591 -0.10702377 121.49000619 -0.10724204 122.44387132 -0.10746694 C124.31999862 -0.10791041 126.19612593 -0.10835697 128.07225323 -0.10880661 C129.00288248 -0.10902804 129.93351173 -0.10924947 130.89234187 -0.10947761 C145.97526544 -0.11342646 161.05814071 -0.1308823 176.14104561 -0.15416613 C191.61665483 -0.17786387 207.0922398 -0.19034127 222.56786746 -0.19150805 C231.26080623 -0.19242571 239.95368211 -0.1982008 248.64660358 -0.21632767 C256.04834074 -0.2317074 263.44999555 -0.23686175 270.85174564 -0.22858956 C274.62956312 -0.22467545 278.40721467 -0.2256495 282.18501186 -0.23964691 C286.27769869 -0.25467262 290.37000954 -0.24654191 294.46271038 -0.23606491 C295.6607578 -0.24412132 296.85880522 -0.25217772 298.09315711 -0.26047826 C299.73646901 -0.25059349 299.73646901 -0.25059349 301.41297913 -0.24050903 C302.83017792 -0.24140467 302.83017792 -0.24140467 304.276007 -0.24231839 C308.37392286 0.34242291 311.01047645 2.24665294 313.89525127 5.13142776 C315.23935564 9.2422924 315.04023261 13.41655742 315.03569317 17.69633865 C315.04014985 19.00593542 315.04014985 19.00593542 315.04469657 20.34198868 C315.05338116 23.2729507 315.05489161 26.20387186 315.05638409 29.13484573 C315.06101236 31.2340491 315.06603704 33.33325162 315.07142925 35.43245316 C315.0845528 41.13904841 315.09099793 46.8456319 315.09543991 52.55223989 C315.09837022 56.11624657 315.10247491 59.68025002 315.10694408 63.24425507 C315.12061781 74.3917689 315.13028554 85.53927538 315.13414598 96.68679702 C315.13862901 109.56179862 315.15618886 122.43669417 315.18514657 135.31166351 C315.20674649 145.25995314 315.21684932 155.20821289 315.21818709 165.15652573 C315.21923617 171.1001856 315.22516607 177.04374577 315.24300671 182.98738098 C315.2594585 188.57698923 315.26165692 194.1664225 315.2528677 199.7560463 C315.25209582 201.80793221 315.25645981 203.85982742 315.26632595 205.91168976 C315.27900259 208.7121858 315.27319193 211.51205811 315.26274395 214.31254959 C315.27482856 215.5312357 315.27482856 215.5312357 315.2871573 216.77454174 C315.24507775 221.59513424 314.66262289 225.00717417 311.89525127 229.13142776 C309.20959282 231.02188381 307.04968888 231.38051358 303.80766582 231.3719368 C303.00282253 231.37468613 302.19797924 231.37743546 301.36874676 231.3802681 C300.05783817 231.36948227 300.05783817 231.36948227 298.72044659 231.35847855 C297.32968662 231.35891663 297.32968662 231.35891663 295.9108305 231.35936356 C292.84825034 231.35797096 289.7859139 231.34241295 286.72337627 231.32674026 C284.59917108 231.32300989 282.47496417 231.32016303 280.35075665 231.31816483 C274.76119005 231.31053033 269.17172747 231.29088334 263.58220196 231.26875687 C257.87797229 231.24829453 252.17372582 231.23916227 246.46947002 231.22908401 C235.27801809 231.20763734 224.08664333 231.17350354 212.89525127 231.13142776 C212.57274395 230.25969925 212.25023663 229.38797073 211.91795635 228.4898262 C211.48378399 227.33514847 211.04961163 226.18047073 210.60228252 224.99080276 C210.1766502 223.85094925 209.75101788 222.71109573 209.3124876 221.5367012 C204.28010129 209.44510356 194.27186899 195.76994669 181.99681377 190.28279495 C161.76079695 182.13008743 142.43923954 180.51410336 121.95775127 189.00642776 C105.63424867 197.05976871 94.71233573 211.27226919 88.58665752 228.30330276 C87.89525127 230.13142776 87.89525127 230.13142776 86.89525127 231.13142776 C81.7599167 231.65702409 77.33698446 231.93879835 72.77025127 229.38142776 C69.24606572 225.1524051 69.76208996 220.55900292 69.75462627 215.26033401 C69.73630406 213.70107455 69.71673429 212.14182933 69.69603252 210.58259964 C69.66704555 208.13565715 69.64525042 205.68963728 69.64476299 203.24251175 C69.64142345 200.87262904 69.60686119 198.50485032 69.56712627 196.13533401 C69.57419598 195.40810638 69.58126568 194.68087875 69.58854961 193.93161392 C69.49403448 189.97354638 69.04724564 188.31234506 66.46654034 185.24055862 C65.61801495 184.54454544 64.76948956 183.84853226 63.89525127 183.13142776 C61.13932981 180.47053808 60.62339 178.4243042 60.39525127 174.69392776 C60.51128423 170.98698002 60.81978249 170.22933321 63.20775127 167.13142776 C66.66385248 164.55944547 69.05062933 164.00409137 73.2397337 164.0655098 C74.11461941 164.0752684 74.98950512 164.08502701 75.89090252 164.09508133 C76.8346423 164.10965378 77.77838207 164.12422623 78.75072002 164.13924026 C80.75527217 164.15676661 82.7598298 164.17367391 84.7643919 164.19002151 C87.91990172 164.22089782 91.07513594 164.25631554 94.23045635 164.30281448 C97.27891152 164.34538332 100.32704736 164.36866514 103.37572002 164.38924026 C104.30933865 164.40786118 105.24295727 164.42648209 106.20486736 164.44566727 C112.13761517 164.46867684 116.49392966 163.6390884 121.89525127 161.13142776 C123.62229809 159.42841222 123.62229809 159.42841222 123.89525127 157.13142776 C123.58058485 153.27676408 123.06275139 151.38267794 120.89525127 148.13142776 C117.41922453 146.74274315 113.7309223 146.99321222 110.03465557 146.97371292 C109.352812 146.9686322 108.67096844 146.96355148 107.96846294 146.9583168 C106.49144735 146.94763913 105.01441584 146.9390088 103.53737736 146.93219757 C101.19530569 146.92036822 98.85341509 146.90090473 96.51141644 146.87907791 C89.85369721 146.81760079 83.19599756 146.76347287 76.53807354 146.73006058 C72.46139475 146.70905446 68.38504849 146.67370494 64.30856037 146.62930298 C62.75975057 146.61519094 61.21088197 146.60643142 59.66201115 146.6032486 C57.4889997 146.59831078 55.31686269 146.57508132 53.14403057 146.54793167 C51.29348316 146.53580139 51.29348316 146.53580139 49.40555096 146.52342606 C45.23175146 146.05733415 42.60999449 145.07721075 38.89525127 143.13142776 C36.06086604 138.87984991 36.25749927 135.12183717 36.89525127 130.13142776 C38.68864993 126.82053794 39.93944924 125.56229944 43.3510313 124.0243721 C48.25564281 122.78868552 52.93821512 122.83955178 57.97777081 122.84431839 C59.08412884 122.83748535 60.19048687 122.83065231 61.3303709 122.82361221 C63.72679527 122.810047 66.12324839 122.80097911 68.51970577 122.79590225 C72.31034448 122.78760712 76.10074301 122.76709765 79.89131451 122.74336624 C88.61840673 122.69107761 97.34553062 122.65685929 106.07271099 122.62360764 C114.7154245 122.59047027 123.35800977 122.54964909 132.00062466 122.49548721 C135.7387195 122.4753893 139.47672421 122.4670943 143.21486187 122.45918655 C145.50041822 122.44621769 147.78597153 122.4326979 150.07152081 122.41853714 C151.11369762 122.41951904 152.15587444 122.42050095 153.22963238 122.4215126 C154.18567364 122.41323944 155.1417149 122.40496628 156.1267271 122.39644241 C157.37051978 122.39204273 157.37051978 122.39204273 158.63943958 122.38755417 C161.14743499 122.10279465 162.75208719 121.4471318 164.89525127 120.13142776 C167.20787449 116.89375526 167.13847405 114.02299214 166.89525127 110.13142776 C166.45583604 107.86576434 166.45583604 107.86576434 165.89525127 106.13142776 C161.53031401 105.05863715 157.27110803 104.9799323 152.80369854 104.97371292 C152.00305981 104.9686322 151.20242107 104.96355148 150.37752056 104.9583168 C148.64460169 104.94764455 146.9116693 104.93901213 145.17873096 104.93219757 C142.43360697 104.9203694 139.68863753 104.90090772 136.94357586 104.87907791 C129.14065481 104.81758494 121.33775186 104.76340301 113.53465557 104.73006058 C108.75659672 104.70909737 103.97882391 104.67378563 99.20092869 104.62930298 C97.38334236 104.61516137 95.56570547 104.6064247 93.7480669 104.6032486 C91.20380671 104.59833094 88.6603043 104.57515288 86.11619854 104.54793167 C84.99617191 104.55244087 84.99617191 104.55244087 83.85351849 104.55704117 C79.14305243 104.48232947 75.88396974 103.64929886 71.89525127 101.13142776 C69.50450849 97.73811543 68.90563241 95.7231526 68.83275127 91.56892776 C69.90633683 88.09556273 71.0801061 86.43503639 73.83665752 84.07674026 C80.22630352 81.14259543 88.51146697 81.98611805 95.38841534 81.98958206 C96.51457256 81.98610764 97.64072979 81.98263321 98.80101299 81.9790535 C101.23452294 81.97172864 103.66803943 81.96636593 106.10155773 81.96276283 C109.9511175 81.95557134 113.80055173 81.93988791 117.65007305 81.92142105 C118.95844002 81.91515859 120.26680698 81.90889612 121.61482143 81.90244389 C122.27615188 81.89927807 122.93748233 81.89611226 123.61885309 81.89285052 C132.57002005 81.85085863 141.52114059 81.81775796 150.47239971 81.80550003 C157.17313968 81.79623026 163.87351083 81.76618207 170.57413769 81.72418022 C173.12744239 81.71184626 175.68079256 81.70675331 178.23412609 81.70897865 C181.796326 81.71132115 185.35759139 81.6892477 188.91966534 81.66145706 C189.97740154 81.66805847 191.03513775 81.67465988 192.12492657 81.68146133 C197.68152754 81.69482428 197.68152754 81.69482428 202.52263165 79.28189468 C204.32817754 76.45316731 204.8266955 74.49066064 204.89525127 71.13142776 C203.75745255 68.8041122 202.72684413 66.96302062 200.89525127 65.13142776 C198.71921741 65.03095598 196.5398651 65.00232585 194.36151409 65.00012589 C193.67068916 64.99801017 192.97986423 64.99589446 192.26810521 64.99371463 C189.93587853 64.98768739 187.60370554 64.98871672 185.27147198 64.98958206 C183.60620309 64.9865523 181.94093504 64.98303136 180.27566814 64.9790535 C176.68031312 64.97114892 173.08496809 64.96601369 169.4896059 64.96276283 C163.80441134 64.95686495 158.11927979 64.94033545 152.43411541 64.92142105 C150.48949818 64.91508314 148.54488091 64.90875752 146.6002636 64.90244389 C145.62617715 64.89927807 144.65209071 64.89611226 143.6484865 64.89285052 C130.40726639 64.85074307 117.16607486 64.81780505 103.92479229 64.80550003 C95.00135539 64.79712218 86.0780736 64.77463914 77.15471429 64.73614436 C72.43053796 64.71636941 67.7065936 64.70398376 62.98237324 64.70897865 C58.53602265 64.71362213 54.0901114 64.6998362 49.64384937 64.67196655 C48.01286289 64.66504892 46.38183103 64.66493439 44.75084591 64.67216682 C42.5213439 64.68105373 40.29329113 64.66536631 38.06390667 64.64368057 C36.81709779 64.64129222 35.57028891 64.63890387 34.28569794 64.63644314 C30.24629472 64.03476409 28.07182822 62.64923175 24.89525127 60.13142776 C22.36428558 56.51781103 22.70555042 53.47887501 23.28197002 49.25642776 C24.22506534 45.98863255 26.01435346 44.77765509 28.89525127 43.13142776 C32.44139039 41.94938139 35.63493047 41.99937554 39.32351971 42.01790237 C40.08658532 42.01775352 40.84965094 42.01760466 41.63583976 42.01745129 C44.20109784 42.01814752 46.7662849 42.0259981 49.33153057 42.03377151 C51.16805767 42.03569022 53.00458529 42.03715424 54.84111309 42.03819656 C58.80256074 42.04136255 62.76398718 42.04763924 66.72542667 42.05626297 C73.0015818 42.06978145 79.27772984 42.07567973 85.5538969 42.08040237 C100.02727041 42.09245807 114.50062574 42.11442422 128.97398663 42.13663101 C142.2041951 42.15685284 155.4343971 42.17492918 168.66461784 42.18484592 C174.88970208 42.18980034 181.11475312 42.19961987 187.33982408 42.21327591 C191.23672732 42.22079876 195.13362616 42.22406391 199.0305357 42.22624207 C200.82182174 42.22809573 202.61310706 42.23165912 204.40438557 42.23717499 C209.90258005 42.25355416 215.3978492 42.22965798 220.89525127 42.13142776 C221.65665928 42.11873226 222.41806729 42.10603676 223.20254827 42.09295654 C225.41666321 42.04447207 227.62739105 41.96570153 229.84015179 41.87532425 C231.10623178 41.82979919 232.37231176 41.78427414 233.67675781 41.73736954 C237.39894349 41.03659826 238.59703411 40.07727633 240.89525127 37.13142776 C242.41041348 34.10110335 242.0655318 31.48027815 241.89525127 28.13142776 C240.99776858 25.29764644 240.99776858 25.29764644 239.89525127 23.13142776 C234.25426301 22.17137095 228.80526218 21.98660024 223.08967876 21.99339676 C222.11942371 21.99057548 221.14916866 21.9877542 220.14951193 21.98484743 C216.90768641 21.97653338 213.66589517 21.97516595 210.42405987 21.97371292 C208.0961933 21.96904255 205.76832763 21.96389862 203.44046307 21.9583168 C198.43248741 21.94705279 193.42451765 21.93861063 188.41653347 21.93219757 C180.50061442 21.92150844 172.58473514 21.90128127 164.66884136 21.87907791 C161.9582683 21.87159939 159.24769506 21.86418555 156.53712177 21.85679054 C155.85984618 21.85493998 155.18257058 21.85308941 154.48477148 21.85118277 C146.78468805 21.83027848 139.08460005 21.81143732 131.38450909 21.79353714 C130.32925063 21.79107987 130.32925063 21.79107987 129.25267382 21.78857295 C117.83985113 21.76226014 106.42702522 21.74362932 95.014185 21.72694524 C83.2900225 21.70952934 71.56592353 21.68069387 59.84181178 21.64205587 C53.26164899 21.62095875 46.68157684 21.60552466 40.10137844 21.6032486 C33.91746279 21.60110688 27.73373623 21.58528623 21.54987812 21.55885887 C19.27827718 21.55164777 17.00665338 21.54957363 14.73504353 21.55296135 C11.63875566 21.55684209 8.54307591 21.54244661 5.4468565 21.52342606 C4.09263295 21.5317206 4.09263295 21.5317206 2.71105134 21.54018271 C-2.03636533 21.48969395 -5.28187423 21.26622232 -9.10474873 18.13142776 C-11.78380602 14.11284182 -11.80085566 10.85501055 -11.10474873 6.13142776 C-7.92769521 1.04814214 -5.80117702 0.00765759 0 0 Z " fill="#383836" transform="translate(18.104748725891113,102.86857223510742)"/>
<path d="M0 0 C1.03189957 -0.00315216 2.06379913 -0.00630432 3.12696838 -0.009552 C4.80809975 -0.00651566 4.80809975 -0.00651566 6.52319336 -0.00341797 C8.25151649 -0.00485306 8.25151649 -0.00485306 10.01475525 -0.00631714 C12.46019546 -0.00699897 14.90563747 -0.00514447 17.35107422 -0.00097656 C21.07320297 0.00433766 24.79520917 -0.00090378 28.51733398 -0.00732422 C30.89428737 -0.00666277 33.27124069 -0.00538023 35.64819336 -0.00341797 C36.75477798 -0.0054422 37.86136261 -0.00746643 39.0014801 -0.009552 C57.03900714 0.044394 57.03900714 0.044394 62.54907227 5.38964844 C64.93845585 8.15822526 66.62242163 11.0471009 68.23803711 14.31689453 C68.6033252 15.02813477 68.96861328 15.739375 69.3449707 16.47216797 C73.42500568 24.57813054 77.03800038 32.91436351 80.62548828 41.24731445 C88.61050892 59.65952851 97.72892684 77.14496568 117.05053711 85.50439453 C120.62561905 86.76898975 124.1283488 87.58413601 127.86303711 88.23095703 C128.83885742 88.40191895 129.81467773 88.57288086 130.82006836 88.74902344 C131.92415039 88.93730713 131.92415039 88.93730713 133.05053711 89.12939453 C133.12068625 104.9152992 133.17355415 120.70116163 133.20597363 136.48718357 C133.22142812 143.81727376 133.24249041 151.14726698 133.27685547 158.47729492 C133.30680138 164.86778214 133.32612242 171.2581991 133.33280259 177.64875454 C133.3367061 181.03105203 133.34584999 184.41314859 133.36772728 187.79538155 C133.38950516 191.57554156 133.39250379 195.35528538 133.39111328 199.13549805 C133.40189911 200.25112122 133.41268494 201.36674438 133.42379761 202.51617432 C133.40019442 208.44645425 133.13532082 212.97867015 130.05053711 218.12939453 C125.47422381 219.45526152 120.97852007 219.20474866 116.24194336 219.00830078 C115.0012207 218.95996094 113.76049805 218.91162109 112.48217773 218.86181641 C111.20536133 218.80574219 109.92854492 218.74966797 108.61303711 218.69189453 C107.30915039 218.6396875 106.00526367 218.58748047 104.66186523 218.53369141 C101.45781264 218.40459039 98.25411765 218.26964858 95.05053711 218.12939453 C95.19056152 217.44337158 95.33058594 216.75734863 95.47485352 216.05053711 C99.30505395 196.35937849 97.3876121 178.19799077 86.05053711 161.12939453 C80.25888115 153.44466561 73.76458151 147.37916696 65.05053711 143.12939453 C64.13014648 142.66919922 63.20975586 142.20900391 62.26147461 141.73486328 C48.4591861 135.1379017 32.00038651 133.44464209 17.11303711 137.62939453 C9.52564325 140.41946794 -0.17940536 144.359337 -5.94946289 150.12939453 C-8.07446289 149.75439453 -8.07446289 149.75439453 -9.94946289 149.12939453 C-10.01958647 130.866196 -10.07246746 112.60303248 -10.10489941 94.33972836 C-10.12035929 85.85949639 -10.14143198 77.37934815 -10.17578125 68.89916992 C-10.20571054 61.50666626 -10.22504428 54.11422324 -10.23172837 46.72166067 C-10.23563467 42.80840742 -10.24479658 38.89532763 -10.26665306 34.98213005 C-10.28707407 31.29593961 -10.29328542 27.60999347 -10.28878593 23.92375183 C-10.28999976 21.9319293 -10.30611245 19.94013315 -10.32272339 17.94837952 C-10.30091042 11.62229844 -10.21902458 6.64189775 -6.94946289 1.12939453 C-4.45911667 -0.11577858 -2.78597627 0.00243585 0 0 Z M4.05053711 18.12939453 C4.05053711 36.93939453 4.05053711 55.74939453 4.05053711 75.12939453 C29.13053711 75.12939453 54.21053711 75.12939453 80.05053711 75.12939453 C78.02586197 68.3804774 76.00325315 62.4110821 73.05053711 56.12939453 C68.68234527 46.66850779 64.63212714 37.09012381 60.68139648 27.44775391 C60.23731445 26.37976563 59.79323242 25.31177734 59.33569336 24.21142578 C58.94260986 23.25469971 58.54952637 22.29797363 58.14453125 21.31225586 C57.24753878 18.97820849 57.24753878 18.97820849 55.05053711 18.12939453 C53.41636116 18.03911104 51.77850874 18.01183795 50.1418457 18.01586914 C49.10664795 18.01598999 48.0714502 18.01611084 47.00488281 18.01623535 C45.91393311 18.02135132 44.8229834 18.02646729 43.69897461 18.03173828 C42.19814331 18.0332489 42.19814331 18.0332489 40.66699219 18.03479004 C36.91982888 18.04003261 33.17268188 18.05399381 29.42553711 18.06689453 C21.05178711 18.08751953 12.67803711 18.10814453 4.05053711 18.12939453 Z " fill="#383836" transform="translate(359.949462890625,145.87060546875)"/>
<path d="M0 0 C9.17026456 8.55343062 15.10583873 20.34622551 16.1328125 32.84765625 C16.36746028 45.81194603 13.07745961 57.06619559 4.15795898 66.61303711 C-6.04819157 77.06206553 -16.88205632 82.5822235 -31.5078125 82.8125 C-38.67651351 82.76242394 -44.60711726 81.63718056 -51.0703125 78.375 C-51.90820312 77.9625 -52.74609375 77.55 -53.609375 77.125 C-65.33987844 70.73314673 -72.49342189 61.8390047 -77.0703125 49.375 C-80.61883762 37.0148804 -78.484598 23.64320834 -72.5625 12.55078125 C-65.58499624 0.65657136 -55.39199681 -6.93078685 -42.1953125 -11 C-26.38605288 -14.19478788 -12.48603987 -9.80036337 0 0 Z M-49.0703125 23.375 C-51.9684472 30.35641728 -52.52860705 38.61518581 -50.30078125 45.88671875 C-47.20460308 51.63051218 -42.13714773 54.39510467 -36.0703125 56.375 C-28.85790208 57.8714525 -23.08469127 55.29411685 -17.0703125 51.375 C-12.99810674 47.61604083 -10.95687817 42.80312376 -10.0703125 37.375 C-10.22969842 32.15148877 -11.03748278 27.17421285 -14.2578125 22.9375 C-19.40439604 18.24839055 -24.35892091 15.66049166 -31.3203125 15.125 C-38.57799602 15.60884557 -44.0001269 18.18409569 -49.0703125 23.375 Z " fill="#3A3938" transform="translate(425.0703125,309.625)"/>
<path d="M0 0 C9.27173865 7.23846263 16.41618757 18.1214068 18 30 C18.95367187 44.13310446 17.21893016 56.69173287 8 68 C7.44828125 68.68707031 6.8965625 69.37414062 6.328125 70.08203125 C-1.49573301 78.82535975 -13.51687793 84.33444995 -25.13671875 85.24609375 C-37.68515626 85.70164759 -48.07598739 82.70071039 -58 75 C-59.03125 74.2575 -60.0625 73.515 -61.125 72.75 C-70.53357245 63.75049591 -74.87681057 53.02789925 -75.47094727 40.0246582 C-75.66266814 26.6638076 -72.28865466 14.83326634 -63 5 C-44.49595776 -11.56697997 -20.83073874 -13.98635316 0 0 Z M-44.875 24.875 C-48.54052406 30.26547655 -49.93647347 35.49210211 -49 42 C-47.101241 48.69682067 -43.8280984 53.20853379 -38 57 C-32.74670651 59.68501667 -27.63299598 59.22495309 -22 58 C-16.62833327 55.99858749 -13.22056031 52.60080044 -10 48 C-7.55192695 42.63755428 -7.02668412 37.3070619 -8.6875 31.6640625 C-11.2607441 25.20950856 -14.40101699 21.71769644 -20.75 18.6875 C-30.03548607 16.72326256 -38.25961928 17.54600678 -44.875 24.875 Z " fill="#383837" transform="translate(197,312)"/>
<path d="M0 0 C2.33203676 3.49805514 4.17400153 7.12502988 6.0625 10.875 C6.60874023 11.93654297 6.60874023 11.93654297 7.16601562 13.01953125 C9.00172375 16.66380209 10.47742641 19.8998072 11 24 C10.34 23.67 9.68 23.34 9 23 C9 22.01 9 21.02 9 20 C8.67 20.66 8.34 21.32 8 22 C7.01 22 6.02 22 5 22 C5 23.65 5 25.3 5 27 C2 28 2 28 -1 28 C-2.33912585 24.87745057 -3.67030658 21.75157642 -5 18.625 C-5.3815625 17.73554688 -5.763125 16.84609375 -6.15625 15.9296875 C-6.69765625 14.65351563 -6.69765625 14.65351563 -7.25 13.3515625 C-7.58515625 12.56604004 -7.9203125 11.78051758 -8.265625 10.97119141 C-9 9 -9 9 -9 7 C-8.360625 6.7525 -7.72125 6.505 -7.0625 6.25 C-4.81258459 5.18437567 -4.81258459 5.18437567 -4.25 2.875 C-4.1675 2.25625 -4.085 1.6375 -4 1 C-2.68 0.67 -1.36 0.34 0 0 Z " fill="#494948" transform="translate(427,160)"/>
<path d="M0 0 C0.33 0 0.66 0 1 0 C1.01030746 1.15241684 1.02061493 2.30483368 1.03123474 3.49217224 C1.12953796 14.42101827 1.23231854 25.34981452 1.33933926 36.27857876 C1.39420254 41.89541825 1.44755836 47.51226315 1.49731445 53.12915039 C1.54550487 58.56273882 1.59785697 63.99627346 1.65294075 69.42979622 C1.67311987 71.48950907 1.69186873 73.54923652 1.70907402 75.60897636 C1.79123132 85.34082024 1.91574182 95.05883152 2.45727539 104.77758789 C2.49530746 105.48560012 2.53333952 106.19361235 2.57252407 106.92307949 C2.77549597 110.58459989 2.77549597 110.58459989 4 114 C4.66 114 5.32 114 6 114 C5.42655063 116.86724686 5.1385485 117.8614515 3 120 C0.875 119.625 0.875 119.625 -1 119 C-1.10397588 95.36570416 -0.80453177 71.73580861 -0.53643799 48.10345459 C-0.4750606 42.66533554 -0.41534317 37.22719827 -0.35546875 31.7890625 C-0.23856565 21.19269029 -0.11987964 10.59633892 0 0 Z " fill="#747374" transform="translate(351,176)"/>
<path d="M0 0 C0.65032782 -0.00256327 1.30065564 -0.00512655 1.97069037 -0.0077675 C4.13579785 -0.01268361 6.30019794 0.00375044 8.46524048 0.02018738 C10.02275577 0.02103413 11.58027227 0.02055758 13.13778687 0.01885986 C17.35641072 0.01800034 21.57477784 0.03561906 25.79334211 0.05658174 C30.20557822 0.07535573 34.61782044 0.07709955 39.03009033 0.08065796 C47.38103227 0.0899763 55.73185616 0.11458723 64.08274615 0.14470643 C73.59175663 0.178257 83.1007728 0.1947381 92.60982776 0.20979273 C112.16667831 0.24113697 131.72342266 0.29389338 151.28018188 0.36076355 C151.28018188 0.69076355 151.28018188 1.02076355 151.28018188 1.36076355 C99.47018188 1.36076355 47.66018188 1.36076355 -5.71981812 1.36076355 C-6.04981812 3.01076355 -6.37981812 4.66076355 -6.71981812 6.36076355 C-7.37981812 6.36076355 -8.03981812 6.36076355 -8.71981812 6.36076355 C-8.71981812 5.37076355 -8.71981812 4.38076355 -8.71981812 3.36076355 C-10.69981812 4.68076355 -12.67981812 6.00076355 -14.71981812 7.36076355 C-13.6827784 4.35334838 -12.82055038 3.42175463 -10.05386925 1.74659252 C-6.41056952 0.23222153 -3.92877459 -0.0093691 0 0 Z " fill="#989898" transform="translate(56.719818115234375,144.6392364501953)"/>
<path d="M0 0 C0.82062424 0.00007553 1.64124847 0.00015106 2.48674011 0.00022888 C3.80875175 0.00797081 3.80875175 0.00797081 5.1574707 0.01586914 C6.5161602 0.01799156 6.5161602 0.01799156 7.90229797 0.02015686 C10.79598286 0.02575538 13.68959044 0.03830758 16.58325195 0.05102539 C18.54483938 0.05604058 20.50642801 0.06060346 22.46801758 0.06469727 C27.27729217 0.07572432 32.08650895 0.09298792 36.89575195 0.11352539 C36.89575195 0.77352539 36.89575195 1.43352539 36.89575195 2.11352539 C40.19575195 1.45352539 43.49575195 0.79352539 46.89575195 0.11352539 C46.89575195 0.77352539 46.89575195 1.43352539 46.89575195 2.11352539 C43.82769381 3.00069248 41.04089015 3.26247497 37.85180664 3.31884766 C36.85107117 3.33879288 35.85033569 3.3587381 34.8192749 3.37928772 C33.20970917 3.40435646 33.20970917 3.40435646 31.56762695 3.42993164 C30.4634845 3.45071274 29.35934204 3.47149384 28.22174072 3.49290466 C24.69647412 3.55826185 21.17113336 3.61722103 17.64575195 3.67602539 C15.2551193 3.71922375 12.86449413 3.76283846 10.47387695 3.80688477 C4.61458022 3.91392911 -1.24479019 4.01572124 -7.10424805 4.11352539 C-7.10424805 3.12352539 -7.10424805 2.13352539 -7.10424805 1.11352539 C-4.37318294 0.20317036 -2.80531566 -0.00863174 0 0 Z " fill="#504F50" transform="translate(91.104248046875,266.886474609375)"/>
<path d="M0 0 C0.66 0 1.32 0 2 0 C1.52655474 5.05008278 -0.97459002 9.03898636 -4 13 C-4.99 13.66 -5.98 14.32 -7 15 C-7.33 13.02 -7.66 11.04 -8 9 C-7.01 8.67 -6.02 8.34 -5 8 C-5 6.35 -5 4.7 -5 3 C-3.35 3.33 -1.7 3.66 0 4 C0 2.68 0 1.36 0 0 Z " fill="#414140" transform="translate(209,367)"/>
<path d="M0 0 C0.69287109 0.00451172 1.38574219 0.00902344 2.09960938 0.01367188 C3.79561068 0.02536844 5.49156703 0.04330076 7.1875 0.0625 C7.1875 0.3925 7.1875 0.7225 7.1875 1.0625 C3.2275 1.0625 -0.7325 1.0625 -4.8125 1.0625 C-4.8125 2.0525 -4.8125 3.0425 -4.8125 4.0625 C-4.1525 3.7325 -3.4925 3.4025 -2.8125 3.0625 C-3.625 5.5 -3.625 5.5 -4.8125 8.0625 C-5.8025 8.3925 -6.7925 8.7225 -7.8125 9.0625 C-8.875 7.1875 -8.875 7.1875 -9.8125 5.0625 C-9.4825 4.4025 -9.1525 3.7425 -8.8125 3.0625 C-10.1325 2.4025 -11.4525 1.7425 -12.8125 1.0625 C-8.52952469 0.00630997 -4.38264354 -0.05452092 0 0 Z " fill="#6F6E6D" transform="translate(168.8125,302.9375)"/>
<path d="M0 0 C0 1.32 0 2.64 0 4 C1.32 4.66 2.64 5.32 4 6 C3.34 6.66 2.68 7.32 2 8 C-6.44646925 2.81321185 -6.44646925 2.81321185 -10 0 C-6.33694766 -0.74926071 -3.57644848 -1.2380014 0 0 Z " fill="#5B5A5A" transform="translate(431,286)"/>
<path d="M0 0 C0.94875 0.350625 1.8975 0.70125 2.875 1.0625 C-0.49236031 3.89108266 -3.99951958 5.5623253 -8.125 7.0625 C-9.115 6.7325 -10.105 6.4025 -11.125 6.0625 C-10.465 6.0625 -9.805 6.0625 -9.125 6.0625 C-9.125 5.4025 -9.125 4.7425 -9.125 4.0625 C-7.805 3.7325 -6.485 3.4025 -5.125 3.0625 C-5.125 2.0725 -5.125 1.0825 -5.125 0.0625 C-3.125 -0.9375 -3.125 -0.9375 0 0 Z " fill="#595958" transform="translate(191.125,387.9375)"/>
<path d="M0 0 C1.40668945 0.00966797 1.40668945 0.00966797 2.84179688 0.01953125 C4.30649414 0.04466797 4.30649414 0.04466797 5.80078125 0.0703125 C6.78884766 0.07933594 7.77691406 0.08835938 8.79492188 0.09765625 C11.2346189 0.1212282 13.67382822 0.15413228 16.11328125 0.1953125 C16.11328125 0.8553125 16.11328125 1.5153125 16.11328125 2.1953125 C13.05109865 2.39064309 9.98881804 2.57684534 6.92578125 2.7578125 C5.62930664 2.84192383 5.62930664 2.84192383 4.30664062 2.92773438 C0.06579046 3.1714614 -3.74469694 3.35302046 -7.88671875 2.1953125 C-4.63281887 0.02604591 -3.75275918 -0.04548799 0 0 Z " fill="#4F4E4E" transform="translate(405.88671875,219.8046875)"/>
<path d="M0 0 C0.99 0.66 1.98 1.32 3 2 C1.63016497 5.16115776 1.0109362 5.9927092 -2 8 C-2.33 6.02 -2.66 4.04 -3 2 C-2.01 1.34 -1.02 0.68 0 0 Z " fill="#565655" transform="translate(204,374)"/>
<path d="M0 0 C5.31427203 2.70923672 8.42148591 5.22864787 12 10 C9.03 9.505 9.03 9.505 6 9 C5.9071875 8.1028125 5.9071875 8.1028125 5.8125 7.1875 C4.68148263 4.14245324 2.75675905 3.55509485 0 2 C0 1.34 0 0.68 0 0 Z " fill="#848484" transform="translate(191,309)"/>
<path d="M0 0 C0.66 0.33 1.32 0.66 2 1 C1.0479279 2.00596297 0.08812654 3.00461563 -0.875 4 C-1.40867187 4.556875 -1.94234375 5.11375 -2.4921875 5.6875 C-4 7 -4 7 -6 7 C-6 7.66 -6 8.32 -6 9 C-6.66 9 -7.32 9 -8 9 C-6.6284197 6.04582705 -5.13179822 3.47288594 -3 1 C-2.01 0.67 -1.02 0.34 0 0 Z " fill="#545454" transform="translate(363,311)"/>
<path d="M0 0 C0.33 0 0.66 0 1 0 C1 2.97 1 5.94 1 9 C2.32 9.66 3.64 10.32 5 11 C6.25 13.125 6.25 13.125 7 15 C3.34683329 13.75023244 2.21934164 13.32901247 0 10 C-0.1953125 7.51953125 -0.1953125 7.51953125 -0.125 4.8125 C-0.10695312 3.91144531 -0.08890625 3.01039063 -0.0703125 2.08203125 C-0.04710937 1.39496094 -0.02390625 0.70789063 0 0 Z " fill="#979797" transform="translate(55,233)"/>
<path d="M0 0 C0.33 0 0.66 0 1 0 C1 3.96 1 7.92 1 12 C-0.98 12.99 -0.98 12.99 -3 14 C-3.99 13.67 -4.98 13.34 -6 13 C-5.38125 12.525625 -4.7625 12.05125 -4.125 11.5625 C-1.1889379 8.02195453 -0.72455289 4.46172044 0 0 Z " fill="#868384" transform="translate(261,131)"/>
<path d="M0 0 C6.625 0.75 6.625 0.75 10 3 C9.67 3.99 9.34 4.98 9 6 C6.525 5.01 6.525 5.01 4 4 C4 3.34 4 2.68 4 2 C2.68 1.34 1.36 0.68 0 0 Z " fill="#51504F" transform="translate(410,303)"/>
<path d="M0 0 C2 2 2 2 2 5 C0.02 5.99 -1.96 6.98 -4 8 C-3.50168276 4.31245243 -2.89932357 2.39509338 0 0 Z " fill="#434241" transform="translate(83,269)"/>
<path d="M0 0 C1.98 0.99 3.96 1.98 6 3 C5.67 4.32 5.34 5.64 5 7 C3.02 6.01 1.04 5.02 -1 4 C-0.67 2.68 -0.34 1.36 0 0 Z " fill="#41413F" transform="translate(378,360)"/>
<path d="M0 0 C0.515625 0.2475 1.03125 0.495 1.5625 0.75 C-1.69602365 2.9223491 -5.02994728 4.82119658 -8.4375 6.75 C-8.7675 5.76 -9.0975 4.77 -9.4375 3.75 C-3.0375 -0.31153846 -3.0375 -0.31153846 0 0 Z " fill="#636363" transform="translate(161.4375,329.25)"/>
<path d="M0 0 C0.33 1.65 0.66 3.3 1 5 C0.29875 4.71125 -0.4025 4.4225 -1.125 4.125 C-4.05452503 2.97866412 -7.00921653 1.97374346 -10 1 C-10 0.67 -10 0.34 -10 0 C-3.375 -1.125 -3.375 -1.125 0 0 Z " fill="#8A8A89" transform="translate(407,325)"/>
<path d="M0 0 C0.928125 0.20625 1.85625 0.4125 2.8125 0.625 C2.4825 1.285 2.1525 1.945 1.8125 2.625 C-0.5015622 3.35575648 -2.83578869 4.02638258 -5.1875 4.625 C-5.5175 3.635 -5.8475 2.645 -6.1875 1.625 C-3.1875 -0.375 -3.1875 -0.375 0 0 Z " fill="#2D2D2C" transform="translate(369.1875,282.375)"/>
<path d="M0 0 C2.6875 -0.3125 2.6875 -0.3125 5 0 C3.02 2.31 1.04 4.62 -1 7 C-1.66 6.34 -2.32 5.68 -3 5 C-1.8125 2.5 -1.8125 2.5 0 0 Z " fill="#4A4949" transform="translate(428,371)"/>
<path d="M0 0 C1.32 0 2.64 0 4 0 C3.6875 1.9375 3.6875 1.9375 3 4 C2.01 4.33 1.02 4.66 0 5 C0 5.99 0 6.98 0 8 C-0.66 8 -1.32 8 -2 8 C-1.125 1.125 -1.125 1.125 0 0 Z " fill="#404040" transform="translate(92,187)"/>
<path d="M0 0 C0.99 0.33 1.98 0.66 3 1 C2.67 1.99 2.34 2.98 2 4 C-0.31 4.33 -2.62 4.66 -5 5 C-5 3.68 -5 2.36 -5 1 C-3.35 1.33 -1.7 1.66 0 2 C0 1.34 0 0.68 0 0 Z " fill="#737373" transform="translate(488,360)"/>
<path d="M0 0 C0.66 0.66 1.32 1.32 2 2 C1.63318342 4.93453261 1.13562754 5.86437246 -1 8 C-1.66 7.34 -2.32 6.68 -3 6 C-2 3 -2 3 0 0 Z " fill="#535252" transform="translate(437,329)"/>
<path d="M0 0 C-0.33 0.66 -0.66 1.32 -1 2 C-3.64860427 2.59355614 -6.29197322 2.74209269 -9 3 C-8.34 2.67 -7.68 2.34 -7 2 C-7 1.34 -7 0.68 -7 0 C-3.98968256 -0.93423645 -3.13349732 -1.04449911 0 0 Z " fill="#727070" transform="translate(385,280)"/>
<path d="M0 0 C1.37432457 3.81756824 0.67975039 7.07255329 0 11 C-0.66 11 -1.32 11 -2 11 C-1.85892253 9.54119891 -1.71197585 8.08296449 -1.5625 6.625 C-1.48128906 5.81289062 -1.40007812 5.00078125 -1.31640625 4.1640625 C-1 2 -1 2 0 0 Z " fill="#7F7E7E" transform="translate(352,148)"/>
<path d="M0 0 C2.15377564 2.62198774 3.40072174 4.64404172 4 8 C2.68 7.67 1.36 7.34 0 7 C-0.93423645 3.98968256 -1.04449911 3.13349732 0 0 Z " fill="#747170" transform="translate(444,197)"/>
<path d="M0 0 C0.66 0.33 1.32 0.66 2 1 C1.01 2.32 0.02 3.64 -1 5 C-0.34 5.66 0.32 6.32 1 7 C0.34 7.66 -0.32 8.32 -1 9 C-1.66 8.34 -2.32 7.68 -3 7 C-2.67028521 3.70285207 -2.3773161 2.3773161 0 0 Z " fill="#767676" transform="translate(11,104)"/>
<path d="M0 0 C1.99097846 2.98646769 2.94124926 5.59687262 4 9 C2.0625 8.25 2.0625 8.25 0 7 C-1.23843794 4.04680182 -1.04187157 3.12561472 0 0 Z " fill="#797979" transform="translate(148,354)"/>
<path d="M0 0 C4.75 0.75 4.75 0.75 7 3 C4.625 3.625 4.625 3.625 2 4 C1.34 3.34 0.68 2.68 0 2 C0 1.34 0 0.68 0 0 Z " fill="#686868" transform="translate(181,305)"/>
<path d="M0 0 C-2.35953094 2.35953094 -3.77895617 2.49141413 -7 3 C-7 2.01 -7 1.02 -7 0 C-3.86650268 -1.04449911 -3.01031744 -0.93423645 0 0 Z " fill="#6D6A70" transform="translate(145,289)"/>
<path d="M0 0 C0.66 0 1.32 0 2 0 C4 3 4 3 5 6 C4.01 6 3.02 6 2 6 C0 3 0 3 0 0 Z " fill="#4A4A48" transform="translate(79,279)"/>
<path d="M0 0 C-0.33 0.99 -0.66 1.98 -1 3 C-4.63 3.33 -8.26 3.66 -12 4 C-4 0 -4 0 0 0 Z " fill="#939393" transform="translate(140,265)"/>
</svg>
